<svg width="109" height="112" viewBox="0 0 109 112" fill="none" xmlns="http://www.w3.org/2000/svg">
<path d="M19.4248 78.798C16.132 87.4122 13.6433 96.3118 11.9902 105.383C11.9902 105.383 22.9022 110.174 26.7394 110.174C30.4567 110.174 42.328 111.97 42.328 111.97C46.7423 103.087 50.8615 94.0603 54.6789 84.9054C57.0771 78.798 52.2807 75.4448 49.8824 75.4448C49.8824 72.8102 46.5249 70.6547 44.7262 69.8164C47.1244 68.0201 51.6811 64.1879 50.9616 62.6311C50.0023 60.7151 45.2059 62.1521 42.328 62.1521C37.6785 62.656 33.1858 64.1245 29.1376 66.4633C25.1944 69.9383 21.9403 74.1225 19.5447 78.798" fill="white"/>
<path d="M24.7007 15.6878C24.7007 12.5742 45.4455 5.3889 54.5588 8.98153C65.2309 13.2927 61.1539 21.0767 68.7084 24.5496C75.0637 26.7052 81.1792 25.2681 81.6589 25.2681C82.858 25.2681 83.4576 32.4534 84.0571 35.3275C84.6567 37.9621 85.2562 39.6386 85.9757 41.914C86.8151 44.9078 88.7337 51.8536 88.7337 52.8116C88.7337 53.7696 87.5346 54.6079 87.5346 54.6079C83.5775 58.9191 79.2606 59.0388 74.1044 58.7993C61.9933 58.3203 52.6402 43.2313 45.0857 40.1176C40.4092 38.2016 32.9746 42.5127 31.8954 42.7522C30.9361 42.9918 29.4972 35.2077 29.4972 35.2077C29.4972 35.2077 24.7007 18.9211 24.7007 15.6878Z" fill="#EC0000"/>
<path d="M79.5017 84.6663C79.9014 83.7082 80.1012 82.1115 80.1012 79.8761C80.1012 79.8443 80.0886 79.8139 80.0661 79.7914C80.0436 79.769 80.0131 79.7564 79.9813 79.7564C79.9495 79.7564 79.919 79.769 79.8965 79.7914C79.874 79.8139 79.8614 79.8443 79.8614 79.8761C79.062 80.3551 78.2626 80.5946 77.4631 80.5946C75.8643 80.8342 74.3454 80.6745 72.9065 80.1156C72.1477 79.8145 71.4585 79.3617 70.8812 78.7851C70.3038 78.2086 69.8505 77.5203 69.549 76.7625L66.4312 80.2354L66.9109 81.1934C68.3498 83.7482 70.6282 85.1453 73.7459 85.3848C75.7444 85.784 77.663 85.5445 79.5017 84.6663ZM0 8.14329C0.839384 5.14943 3.59736 2.75435 5.9956 1.19754C6.83498 0.598771 8.39384 0.239509 8.87349 0L12.231 3.59263C9.59296 4.1914 3.35754 8.98157 3.23762 11.7359H3.11771C1.43894 10.1791 0.959296 9.34083 0 8.26305M109 91.612C109 94.8454 106.842 97.8393 105.043 99.8751C104.323 100.713 102.884 101.432 102.405 101.671L98.3278 99.0368C100.726 97.959 105.523 91.8515 105.043 89.0972L109 91.612ZM89.4543 5.5087C88.5096 5.30949 87.5343 5.30225 86.5866 5.48742C85.639 5.67258 84.7383 6.04636 83.9384 6.58649C82.6593 7.38485 81.3803 8.06346 80.1012 8.62231L78.4224 9.10133L79.022 11.3767L79.7415 14.2508H80.1012C81.4602 13.6919 82.7792 13.0133 84.0583 12.2149C85.8858 11.1805 87.9533 10.6436 90.0539 10.6581L89.4543 5.5087Z" fill="black"/>
<path d="M50.9612 26.9446C50.0019 28.2619 50.1218 30.5373 51.4408 31.7348L54.0789 33.2916C55.8776 34.4891 56.597 36.7645 57.6762 38.6805C57.996 39.3192 58.4757 39.7983 59.1152 40.1176L60.5541 40.5966C62.4727 40.5966 64.3913 39.1596 65.1108 37.3633C65.4503 36.4068 65.5831 35.3894 65.5004 34.378C65.4177 33.3665 65.1215 32.3841 64.6311 31.4953C63.5919 29.7389 62.2729 28.2619 60.674 27.0644C57.9161 25.0286 53.3594 23.1125 50.9612 26.8249" fill="white"/>
<path d="M35.494 13.4124C36.0936 15.5679 35.1343 17.6038 34.7745 19.6396L33.6953 21.3162C33.5355 21.5557 33.4955 21.7153 33.5754 21.7952L32.856 22.7532C32.776 23.1524 32.5362 23.4318 32.1365 23.5915C32.1365 23.7512 31.8967 23.6713 31.417 23.352C31.1772 23.0326 31.1372 22.7931 31.2971 22.6335L31.6568 22.2742L33.3356 19.8791L33.6953 19.2803C33.9352 19.0408 33.6953 18.5618 34.0551 18.4421C34.215 17.8832 34.2549 17.3643 34.175 16.8852V15.6877L33.9352 15.568V14.7297C34.175 14.4902 33.8153 14.4902 33.9352 14.3704V13.1729C33.7753 13.093 33.9352 12.9334 34.4148 12.6938H35.1343C35.1343 13.093 35.2542 13.3325 35.494 13.4124ZM33.0958 31.2558C35.494 31.0163 37.5325 32.2138 39.4511 33.1718H39.8109L41.4896 34.8484C41.6495 35.1677 41.7694 35.2875 41.8494 35.2077L42.8087 36.2854C43.0485 36.525 43.2483 36.8842 43.4082 37.3632C43.5681 37.5229 43.4482 37.7225 43.0485 37.962C42.329 38.2015 42.4489 37.962 42.329 37.962L41.9693 37.3632L39.9308 34.7286L39.2113 34.2496L38.9715 34.0101C38.7316 34.0101 38.5318 33.8904 38.3719 33.6508C37.7723 33.6508 37.2927 33.0521 36.6931 33.1718C36.0936 33.2916 35.8538 32.9323 35.3741 33.0521C35.3741 33.0521 35.1343 33.4113 35.1343 33.1718H34.175C34.0551 32.6928 33.9352 33.1718 33.6953 33.0521L32.4962 32.8126C32.2564 32.8126 32.0965 32.613 32.0166 32.2138C32.0166 31.7348 32.0965 31.4953 32.2564 31.4953C32.5762 31.4953 32.856 31.4154 33.0958 31.2558ZM76.6238 27.7829C76.6238 28.5813 76.8637 29.4195 77.3433 30.2977C77.743 30.9364 78.1827 31.3755 78.6623 31.615L79.9814 32.6928C80.0613 32.8525 80.1812 32.8525 80.3411 32.6928C80.5809 32.9323 80.8607 33.0521 81.1805 33.0521L82.0199 33.2916C82.0199 33.4113 82.2597 33.2916 82.1398 34.0101C81.9799 34.4891 81.82 34.6488 81.6601 34.4891H81.1805C80.2127 34.2811 79.3331 33.7791 78.6623 33.0521L78.0628 32.5731C77.9429 32.2138 77.4632 32.3336 77.4632 31.8545C77.0635 31.615 76.7438 31.3356 76.5039 31.0163L76.2641 30.8965L75.6645 29.9385H75.3048L75.065 28.9804C75.3048 28.7409 74.8252 28.7409 74.9451 28.5014C74.9451 28.0224 75.025 27.6232 75.1849 27.3039C75.3048 27.0644 75.1849 26.9446 75.9044 27.0644C76.384 27.1442 76.5839 27.264 76.5039 27.4236L76.6238 27.7829ZM84.4181 48.5004C83.0991 49.6979 81.0606 50.5362 80.5809 52.4523L79.7415 54.1288C79.5817 54.3683 79.5817 54.528 79.7415 54.6078C79.5017 54.9272 79.4618 55.2865 79.6216 55.6856V56.6437C79.3818 56.7634 79.5017 56.8832 78.9022 57.0029C78.4225 57.0029 78.2227 56.8832 78.3026 56.6437V56.0449C78.3026 54.8474 78.5824 53.7297 79.142 52.6918L79.6216 51.9733C79.8615 51.7337 79.6216 51.2547 80.1013 51.135L80.9407 49.5782C80.9407 49.2189 81.5402 48.9794 81.78 48.6201C81.6202 48.5403 81.6202 48.4205 81.78 48.2609C81.9399 48.1012 82.1798 47.9016 82.4995 47.6621C82.7393 47.6621 82.8593 47.5823 82.8593 47.4226C83.3389 47.3428 83.7786 47.1831 84.1783 46.9436C84.2582 46.8637 84.4581 46.9835 84.7778 47.3028V48.0214C84.618 48.1012 84.4981 48.2609 84.4181 48.5004Z" fill="white"/>
<path d="M11.7526 99.3962C13.1292 91.8065 15.7205 84.4876 19.427 77.7206C21.6107 73.2459 24.6214 69.2235 28.3005 65.865C30.7786 64.3481 33.3767 63.3102 36.0947 62.7514L40.2917 61.9131C42.0903 61.6736 42.3302 61.5538 43.1695 61.3143C45.328 61.1946 48.4457 60.8353 50.6041 61.5538C51.1637 61.7135 51.6433 61.9929 52.043 62.3921C52.4427 62.7913 52.6826 63.3501 52.7625 64.0687C52.7625 64.867 52.5227 65.4259 52.043 65.7452C51.2436 66.5436 50.4442 67.1024 49.6448 67.4218C48.8054 67.6613 47.966 68.1403 47.2466 67.6613C47.6463 67.0226 48.2858 66.5436 49.1651 66.2242C50.1244 65.7452 51.2037 65.0267 51.4435 64.3082C51.4435 64.0687 51.3236 63.7493 51.0837 63.3501C47.2466 61.1946 41.251 62.9909 36.3346 63.8292C33.5312 64.4485 30.8546 65.542 28.4204 67.0625L24.823 70.6551C22.841 73.5114 21.1537 76.5608 19.7867 79.7565C18.9473 81.912 17.6283 84.5466 16.9088 86.822L16.669 88.0195L14.9902 93.648C14.3907 94.4862 14.6305 95.085 14.3907 96.0431C13.5913 98.5978 12.9917 101.192 12.592 103.827C12.3522 104.546 12.3522 105.623 11.6327 105.863C11.0331 105.384 11.273 104.306 11.273 103.588L11.7526 99.3962Z" fill="black"/>
<path d="M39.2114 68.8587C41.3698 67.9007 44.6075 69.218 45.4468 71.6131C46.4061 75.8045 44.2477 78.7983 43.0486 82.1514C42.2492 83.7482 41.2899 85.3449 40.1707 86.9416L39.2114 88.3787L37.053 90.4145C36.2136 91.0132 35.1344 91.612 33.8154 91.2528C33.3357 91.2528 32.6163 90.654 33.0959 90.0552H34.0552L35.2543 89.8157C36.4559 89.4302 37.5049 88.6758 38.2521 87.6601L40.8902 83.7082L42.0893 81.7922L43.2884 79.3971C43.5283 77.96 44.3676 76.523 44.2477 74.9662C44.2477 74.0081 44.4876 72.9304 44.0079 72.2118V72.0921C43.7681 72.0921 43.6082 72.0122 43.5283 71.8526C43.1285 71.2139 42.6089 70.8147 41.9694 70.655C41.7296 70.0562 41.4897 70.5353 41.13 70.4155C40.1707 70.3357 39.1715 70.5752 38.1322 71.134C37.7725 71.134 37.5327 71.4933 36.9331 71.134C36.9331 70.655 37.1329 70.2558 37.5327 69.9365L39.2114 68.8587ZM41.6097 92.091L43.0486 90.2947C44.9672 88.1391 47.1256 86.1033 48.0849 83.4687C48.8044 82.4308 49.2441 81.3531 49.4039 80.2354V79.3971C49.4839 78.8382 49.4039 78.2395 49.1641 77.6008L48.4446 75.9242C48.2848 75.7645 48.3647 75.4851 48.6845 75.0859C49.1641 74.8464 49.4439 74.9263 49.5239 75.3254L50.1234 76.2835C50.6305 77.4932 50.7964 78.8185 50.6031 80.1156L49.8836 82.5107L49.1641 83.828C48.9243 84.4667 48.6045 85.0255 48.2048 85.5045C47.8451 86.4626 47.0057 87.1811 46.646 88.1391L45.3269 90.0552V90.4145C45.0871 90.8935 44.8073 91.2128 44.4875 91.3725L44.2477 91.8515C43.7681 91.8515 44.0079 92.2108 43.7681 92.4503L41.7296 94.0071C41.4897 94.0071 41.13 94.3664 40.7703 93.7676C40.6903 93.2886 40.7703 93.0091 41.0101 92.9293C41.3299 92.6898 41.5297 92.4104 41.6097 92.091ZM45.8066 94.4861C46.8307 94.3925 47.7976 93.9727 48.5646 93.2886C49.364 92.4902 50.1234 91.5721 50.8429 90.5342L52.042 88.2589L52.8814 86.4626L53.361 85.265C53.5209 84.9457 53.5609 84.7062 53.4809 84.5465C53.7208 83.9877 53.8407 83.3889 53.8407 82.7502V81.0736C53.7607 80.914 53.9206 80.7144 54.3203 80.4749C54.9599 80.5547 55.1997 80.7543 55.0398 81.0736L55.1597 82.0317C55.1597 83.7881 54.76 85.3848 53.9606 86.8218L53.6009 87.4206C53.441 87.9795 53.2011 88.3786 52.8814 88.6182C52.7215 89.2569 52.4417 89.7359 52.042 90.0552L51.6823 91.0132L50.723 92.6898C50.4831 93.3285 50.0834 93.8874 49.5239 94.3664C49.5239 94.6059 49.4439 94.7655 49.284 94.8454C48.8843 95.2446 48.3647 95.5639 47.7252 95.8034C47.3654 95.5639 47.2455 96.0429 46.8858 96.0429H45.6867C45.207 96.0429 44.8073 95.8833 44.4875 95.5639C44.0878 95.4841 44.0079 95.2046 44.2477 94.7256C44.6474 94.4861 44.8873 94.4063 44.9672 94.4861H45.8066Z" fill="black"/>
<path d="M52.9999 90.4145C51.8008 94.6059 49.0428 98.0788 47.4839 101.911L47.2441 102.39L45.3255 106.342C45.0058 106.741 44.8858 107.06 44.9658 107.3L43.7667 109.695L42.5675 111.731C42.4077 111.97 42.0879 112.05 41.6083 111.97C41.3684 111.571 41.3684 111.212 41.6083 110.892L42.2078 109.934L45.4454 103.707C45.6853 103.069 45.965 102.55 46.2848 102.15L46.5246 101.432C46.6845 100.873 46.9243 100.474 47.2441 100.234C47.6039 99.0368 48.4432 97.959 48.6831 96.7615C48.9229 95.9631 49.2826 95.1647 49.7623 94.3664C49.6823 94.047 49.6823 93.8874 49.7623 93.8874C49.7623 93.1688 50.3618 92.6898 50.4817 91.9713C50.9614 91.7318 50.6017 91.3725 50.8415 91.133L52.0406 88.7379C52.0406 88.3387 52.3204 88.1392 52.88 88.1392C53.2797 88.3787 53.3996 88.6581 53.2397 88.9774C53.0798 89.4565 52.9999 89.9754 52.9999 90.5342M26.3794 21.5558C27.897 31.89 30.1816 42.0972 33.2144 52.0931L35.6127 62.5117C35.7326 63.9488 35.8525 64.0685 36.0923 64.9068L37.2914 70.7748C37.7711 72.611 38.0908 74.4872 38.2507 76.4032C38.2507 77.1218 38.4905 77.96 37.891 78.3193C37.1715 78.0798 37.1715 77.1218 36.9317 76.523L33.3343 56.8833C32.8547 55.5261 32.4949 54.1289 32.2551 52.6919C31.8954 51.0153 31.056 49.4585 30.9361 47.6622C29.8569 45.0276 29.3772 41.914 28.4179 39.2794C27.7784 37.2037 27.2588 35.088 26.8591 32.9324C26.5393 32.6131 26.3794 32.2937 26.3794 31.9744L25.4201 26.9447C25.66 26.1064 25.1803 25.7472 25.0604 24.7891L24.3409 18.2027C24.3409 17.4841 24.1011 16.6458 24.7007 16.1668C25.3002 16.4063 25.4201 17.3644 25.54 17.9631C25.6999 19.1607 25.9797 20.3183 26.3794 21.436M85.7359 57.6018C82.2984 59.5179 78.6611 60.3162 74.8239 59.9969C66.7898 59.2784 61.1539 53.4104 55.638 48.74C52.88 46.3449 50.6016 43.5906 47.4839 41.5547C46.6845 40.9959 46.085 40.7165 45.6853 40.7165H45.2056C43.307 40.095 41.2729 40.0121 39.3299 40.4769C37.4913 40.8761 35.7725 41.5547 34.1737 42.5128C33.5742 42.7523 32.9746 43.351 32.375 43.2313C32.1352 42.5128 32.9746 41.914 33.5741 41.435C34.3736 40.7963 35.2929 40.2774 36.3321 39.8782C39.4562 38.5353 42.979 38.4495 46.1649 39.6387C48.803 40.916 51.0413 42.5926 52.88 44.6683L56.1176 47.782C57.3167 48.9795 58.9955 50.177 60.0747 51.3746C62.4729 53.1709 64.8712 55.3265 67.6292 56.524C69.5477 57.2425 71.8261 58.2006 73.8646 58.3203C74.2643 58.2405 74.584 58.2405 74.8239 58.3203C76.5826 58.3203 78.2613 58.1607 79.8602 57.8413C80.6996 58.0808 81.0593 57.4821 82.0186 57.2425C84.2253 56.7299 86.2795 55.7041 88.0142 54.2487C88.4938 53.8894 88.9735 53.2907 89.693 53.4104C89.9328 54.1289 89.2133 54.7277 88.7337 55.2067C87.7744 56.0849 86.7351 56.8833 85.616 57.6018M88.1341 50.7758C86.3354 45.9856 85.9757 40.7165 84.5367 35.9263C84.3769 34.3296 84.0971 32.653 83.6974 30.8966C83.6974 30.4176 83.5774 30.0583 83.3376 29.8188L82.4982 27.0645L81.7788 24.4299C81.7788 24.0706 81.5389 23.7113 82.1385 23.3521C82.6181 23.4319 82.8979 23.6714 82.9779 24.0706C83.9688 27.1726 84.7697 30.332 85.3761 33.5312L85.616 35.567C85.7359 36.4053 86.2155 37.1238 86.0956 37.9621C86.4154 39.3992 86.8151 40.7963 87.2947 42.1535L88.1341 45.1474C88.1341 45.2671 88.6138 45.2671 88.4938 45.5066L89.0934 47.9017C88.8536 48.261 89.3332 48.3807 89.4531 48.8597L90.1726 51.9734C90.1726 52.3326 90.4124 52.6919 89.8129 53.0511C89.3332 52.9713 89.0534 52.7318 88.9735 52.3326C88.8136 51.7738 88.5338 51.2548 88.1341 50.7758ZM73.5048 26.1064C72.0265 26.0952 70.5629 25.811 69.188 25.2682C65.3508 23.8311 63.9119 19.5199 62.7128 16.5261C62.0708 14.9414 61.0966 13.5123 59.8556 12.3349C58.6147 11.1575 57.1356 10.2591 55.518 9.70009L55.2782 9.46059C52.88 8.50255 50.3219 8.02353 47.6039 8.02353C46.4047 8.02353 46.2848 8.02353 45.6853 8.26304C44.2463 8.26304 42.3277 8.62231 41.0087 9.10132L36.8118 10.2989C36.2122 10.5384 35.6127 10.8976 35.133 10.2989C35.2929 9.74001 35.6926 9.38075 36.3321 9.22108L38.6105 8.3828C44.1141 6.40821 50.1343 6.40821 55.638 8.3828L55.7579 8.62231C57.1169 9.10132 58.356 9.77993 59.4751 10.6581C61.6335 11.8557 62.8327 14.2508 64.0318 16.2866C64.8712 17.7236 65.2309 19.6397 66.3101 20.8372L66.9097 21.3163C67.7091 22.2743 68.6684 22.9928 69.7876 23.4718L69.9075 23.7113C70.2672 24.0706 70.7469 23.7113 71.2265 24.0706C72.8253 24.5496 74.5441 24.7492 76.3827 24.6694C77.0222 24.5895 77.5019 24.7492 77.8217 25.1484C77.5818 25.7073 77.1022 25.9867 76.3827 25.9867L73.5048 26.1064Z" fill="black"/>
<path d="M23.262 79.3968C24.541 76.7622 26.1398 74.2873 28.0584 71.9721C29.1776 70.2955 30.6965 68.9782 32.6151 68.0202C33.6543 67.5411 34.6936 67.5411 35.7328 68.0202C37.6514 69.3375 37.1717 71.6128 36.9319 73.0498L34.7735 80.2351C34.3738 81.0335 34.1739 81.5923 34.1739 81.9117L32.735 85.8635L31.1761 89.4562C31.0163 90.015 30.6166 90.3344 29.977 90.4142C29.6173 89.9352 29.977 89.3364 29.977 88.9772L30.8164 87.0611C32.3353 83.3886 33.7343 79.6763 35.0133 75.924L35.8527 73.0498V72.8103C36.0925 71.6926 36.1725 70.6947 36.0925 69.8165L35.2532 68.9782C34.6136 68.6589 33.8942 68.6589 33.0947 68.9782L31.5359 70.056L29.1376 72.8103L28.7779 73.4091C28.7779 73.7285 28.698 73.968 28.5381 74.1276L26.7394 77.0017C26.1398 77.2412 26.2598 77.84 25.9 78.319C24.9407 79.5964 24.1413 80.9137 23.5018 82.2709C23.182 82.7499 22.7823 83.0294 22.3027 83.1092C21.823 82.6302 22.3027 82.0314 22.3027 81.6721C22.7823 80.8738 23.1021 80.0754 23.262 79.2771M40.0496 75.5647C39.6899 76.7622 38.4908 77.361 38.251 78.6783L37.6514 79.6363C37.5715 79.6363 37.5715 79.7162 37.6514 79.8758C37.4915 80.0355 37.4116 80.275 37.4116 80.5944L37.0518 81.0734C37.1318 81.233 36.9319 81.233 36.4523 81.0734C35.9726 80.754 35.8127 80.5544 35.9726 80.4746V80.2351L37.0518 78.5585C37.0518 78.3989 37.1318 78.2791 37.2917 78.1993C37.5315 78.0795 37.2917 77.7203 37.6514 77.7203C37.5315 77.361 38.0111 77.1215 37.7713 76.7622L38.0111 76.0437L37.8912 75.924L38.131 75.3252C38.4908 75.3252 38.131 75.3252 38.131 75.2054C38.4508 75.0457 38.6507 74.8462 38.7306 74.6067H39.4501C39.8498 74.8462 40.0097 75.0058 39.9297 75.0857L40.0496 75.5647ZM56.3577 23.1123C58.2763 23.5115 59.8751 24.3098 61.1541 25.5074C62.9129 26.7848 64.3118 28.3815 65.3511 30.2976C66.3104 32.4531 66.4303 34.5688 65.7108 36.6445C65.1885 38.0428 64.1622 39.196 62.8329 39.8779C62.0775 40.2008 61.2517 40.3245 60.4347 40.2372C58.8758 40.1174 57.9165 38.9199 57.0771 37.7223L55.878 35.3272C55.3984 34.3692 54.7189 33.5708 53.8395 32.9322L53.4798 32.6926C52.8244 32.3872 52.2467 31.9377 51.7899 31.3778C51.333 30.8178 51.0089 30.162 50.8417 29.4593C50.8417 28.9803 50.6019 28.2617 51.2015 28.0222C51.761 28.2617 52.0408 28.621 52.0408 29.1C52.2807 29.7387 52.5604 30.2576 52.8802 30.6568L54.559 31.8544C56.5975 33.1717 57.197 35.447 58.1563 37.1236C58.55 37.8579 59.1287 38.4771 59.8351 38.9199L60.5546 39.1594C61.1941 39.1594 61.7537 39.0795 62.2334 38.9199C63.1926 38.5207 63.9921 37.8421 64.6316 36.884L64.7515 36.2853C65.3111 34.6886 65.2312 33.0918 64.5117 31.4951L64.1519 30.8963C63.5924 29.9383 62.9129 29.1 62.1134 28.3815C61.8736 28.142 61.5139 28.3815 61.5139 28.0222L60.0749 26.8247L58.8758 26.1062C58.7159 25.7868 58.3162 25.5872 57.6767 25.5074C56.6375 24.709 55.3984 24.3897 53.9594 24.5494C53.5597 24.709 53.16 24.6292 52.7603 24.3098C52.5205 23.5913 53.24 23.4716 53.7196 23.2321L56.3577 23.1123Z" fill="black"/>
<path d="M92.3332 60.5958C94.012 59.2785 96.1704 57.9612 96.77 55.6859L97.6094 53.5303C97.7693 53.2908 97.7693 53.1311 97.6094 53.0513C97.8492 52.6521 97.8892 52.213 97.7293 51.734V50.5364C97.6493 50.3768 97.8492 50.2171 98.3288 50.0574C99.0483 50.0574 98.9284 50.4167 99.0483 50.5364V51.255C99.1283 52.5323 98.8485 53.8097 98.2089 55.0871L97.7293 56.0451C97.4895 56.2846 97.6094 56.8834 97.1297 57.0032C97.1297 57.7217 96.4103 58.2007 96.2903 58.9192C96.0505 59.3983 95.7308 59.7974 95.331 60.1168V60.476L94.4917 61.3143C94.012 61.0748 94.2518 61.5538 94.012 61.6736L92.5731 62.2724C92.4132 62.432 92.1734 62.3123 91.8536 61.9131C91.6937 61.4341 91.6937 61.1946 91.8536 61.1946C92.1734 61.1147 92.3332 60.9151 92.3332 60.5958ZM89.0956 70.6552C91.6138 69.9366 94.7315 69.4576 96.6501 67.302C97.4495 66.7432 98.169 66.1045 98.8085 65.386C99.1283 65.1465 99.2482 64.9868 99.1682 64.9069L100.128 63.4699C100.287 62.9909 100.527 62.5917 100.847 62.2724C100.847 61.953 101.087 61.8732 101.566 62.0328C102.166 62.3921 101.926 62.6316 101.926 62.7514C101.926 63.0707 101.806 63.3501 101.566 63.5897C100.823 65.0474 99.7566 66.3169 98.4488 67.302C98.129 67.6214 97.7692 67.8609 97.3695 68.0206C97.1297 68.4197 96.73 68.6992 96.1704 68.8588L94.1319 70.4156C93.6523 70.8148 93.1327 71.0943 92.5731 71.2539C92.4531 71.2539 92.5731 71.7329 92.3332 71.6132L90.8943 72.0922C90.6545 71.7329 90.6545 72.212 90.2947 72.212L88.3761 72.3317C88.1363 72.4116 87.9365 72.212 87.7766 71.7329C87.7766 71.3338 87.8965 71.1342 88.1363 71.1342C88.536 71.1342 88.8558 70.9745 89.0956 70.6552ZM17.9878 48.5006C17.1884 48.9796 16.4689 49.6183 15.8294 50.4167C14.7902 51.8537 14.4704 53.4505 14.8701 55.2069C15.2062 56.2378 15.8826 57.1244 16.7887 57.7217C17.8119 58.5528 18.9957 59.1643 20.2661 59.518C20.6658 59.7575 20.9456 59.7974 21.1055 59.6378C21.9049 59.7974 22.7043 59.7974 23.5038 59.6378L25.6622 59.3983C25.9819 59.3184 26.2218 59.4781 26.3817 59.8773C26.3017 60.4361 26.1019 60.7156 25.7821 60.7156L24.583 60.8353C22.8243 61.1546 21.0256 61.0349 19.1869 60.476L17.6281 59.7575C17.0685 59.4382 16.5888 59.039 16.1891 58.56C15.6295 58.1608 15.1499 57.6419 14.7502 57.0032L13.9108 55.4464L13.4312 53.5303C13.3512 52.4924 13.5111 51.5344 13.9108 50.6562C13.7509 50.4965 13.7509 50.3368 13.9108 50.1772L14.2705 49.4586L15.2298 48.2611C15.7095 48.2611 15.5896 47.9018 15.9493 47.6623L18.7073 46.5845C18.9471 46.4249 19.2269 46.5446 19.5467 46.9438C19.5467 47.5027 19.3868 47.7821 19.067 47.7821C18.6673 47.9418 18.3076 48.1813 17.9878 48.5006ZM6.59617 61.0748L7.19573 62.8711C7.9152 64.4279 9.23423 65.9847 10.913 66.4638L13.3112 67.302H15.5896L16.7887 67.0625C17.6281 66.9428 17.9878 67.7811 17.5082 68.2601C17.3483 68.4996 17.0685 68.4996 16.6688 68.2601C16.429 67.7811 16.389 67.5016 16.5489 67.4218L17.1484 68.3798L16.429 68.4996C14.8854 68.8029 13.2848 68.5925 11.8723 67.9008L10.7931 67.4218C10.3134 67.2621 9.91374 67.0226 9.59397 66.7033C8.8745 66.5835 8.39485 65.7452 7.67538 65.5057C7.11579 65.1864 6.71608 64.7872 6.47626 64.3082C6.23643 64.3082 6.11652 64.2283 6.11652 64.0687L5.8767 63.8292L5.39705 62.8711C5.63687 62.5119 5.15723 62.5119 5.15723 62.2724V60.2365C5.15723 59.9172 5.43702 59.7974 5.99661 59.8773L6.47626 60.3563L6.59617 61.0748Z" fill="#EC0000"/>
</svg>
